<svg id="tl_ic_navigation_feed" data-name="Layer 1" xmlns="http://www.w3.org/2000/svg" xmlns:xlink="http://www.w3.org/1999/xlink" viewBox="0 0 21 31"><defs><linearGradient id="linear-gradient" x1="22.8906" y1="28.0686" x2="1.1826" y2="11.6486" gradientTransform="matrix(1, 0, 0, -1, 0, 31.89)" gradientUnits="userSpaceOnUse"><stop offset="0" stop-color="#fff"/><stop offset="1" stop-color="#fff"/></linearGradient></defs><title>ic_navigation_feed</title><path d="M20,18.9323a1.0737,1.0737,0,0,1-.3092.755A1.05,1.05,0,0,1,18.9444,20H2.0556a1.05,1.05,0,0,1-.7464-.3127A1.0737,1.0737,0,0,1,1,18.9323V7.7113a1.0763,1.0763,0,0,1,.1072-.4694,1.0655,1.0655,0,0,1,.3-.374L9.8519.2249a1.0463,1.0463,0,0,1,1.2962,0l8.4445,6.643a1.0655,1.0655,0,0,1,.3.374A1.0763,1.0763,0,0,1,20,7.7113ZM5.2222,13.5941v2.1353H15.7778V13.5941Z" fill="url(#linear-gradient)"/></svg>