<svg width="19" height="19" viewBox="0 0 19 19" fill="none" xmlns="http://www.w3.org/2000/svg">
<path d="M8.65371 2.17781C8.22622 0.605049 6.60456 -0.323409 5.03164 0.104041C4.02141 0.378578 3.23223 1.16768 2.95767 2.17781H0V3.76099H2.95767C3.38516 5.33375 5.00681 6.26221 6.57973 5.83476C7.58996 5.56022 8.37914 4.77112 8.65371 3.76099H19V2.17781H8.65371ZM5.80529 4.35468C5.04015 4.35468 4.41988 3.73447 4.41988 2.9694C4.41988 2.20433 5.04015 1.58412 5.80529 1.58412C6.57044 1.58412 7.19071 2.20433 7.19071 2.9694C7.1894 3.73393 6.5699 4.35337 5.80529 4.35468Z" fill="white"/>
<path d="M13.1947 6.53149C11.8646 6.53625 10.7005 7.42618 10.3471 8.70836H0V10.2915H10.3471C10.7737 11.8641 12.3945 12.7931 13.9672 12.3665C14.9782 12.0922 15.7681 11.3025 16.0423 10.2915H19V8.70836H16.0423C15.6889 7.42618 14.5248 6.53626 13.1947 6.53149ZM13.1947 10.8852C12.4296 10.8852 11.8093 10.265 11.8093 9.49995C11.8093 8.73488 12.4296 8.11467 13.1947 8.11467C13.9599 8.11467 14.5801 8.73488 14.5801 9.49995C14.5793 10.2647 13.9595 10.8844 13.1947 10.8852Z" fill="white"/>
<path d="M5.80529 13.0623C4.47431 13.066 3.30891 13.9561 2.95529 15.2391H0V16.8223H2.95767C3.38516 18.3951 5.00681 19.3235 6.57973 18.8961C7.58996 18.6215 8.37914 17.8324 8.65371 16.8223H19V15.2391H8.65371C8.30025 13.9567 7.13569 13.0667 5.80529 13.0623H5.80529ZM5.80529 17.416C5.04015 17.416 4.41988 16.7958 4.41988 16.0307C4.41988 15.2656 5.04015 14.6454 5.80529 14.6454C6.57043 14.6454 7.19071 15.2656 7.19071 16.0307C7.1894 16.7952 6.56989 17.4147 5.80529 17.416Z" fill="white"/>
</svg>
